<?xml version="1.0" encoding="UTF-8"?> <svg xmlns="http://www.w3.org/2000/svg" width="36" height="36" viewBox="0 0 36 36" fill="none"> <path fill-rule="evenodd" clip-rule="evenodd" d="M9 11.125C9 10.5727 9.44772 10.125 10 10.125H26C26.5523 10.125 27 10.5727 27 11.125V11.375C27 11.9273 26.5523 12.375 26 12.375H10C9.44772 12.375 9 11.9273 9 11.375V11.125ZM9 17.875C9 17.3227 9.44772 16.875 10 16.875H26C26.5523 16.875 27 17.3227 27 17.875V18.125C27 18.6773 26.5523 19.125 26 19.125H10C9.44772 19.125 9 18.6773 9 18.125V17.875ZM10 23.625C9.44772 23.625 9 24.0727 9 24.625V24.875C9 25.4273 9.44772 25.875 10 25.875H26C26.5523 25.875 27 25.4273 27 24.875V24.625C27 24.0727 26.5523 23.625 26 23.625H10Z" fill="#262626"></path> </svg> 