<?xml version="1.0" encoding="UTF-8"?> <svg xmlns="http://www.w3.org/2000/svg" width="32" height="32" viewBox="0 0 32 32" fill="none"> <path d="M17.8806 15.5L24.3097 9.07086C24.6909 8.68963 24.6909 8.07152 24.3097 7.69029C23.9285 7.30905 23.3104 7.30905 22.9291 7.69029L16.5 14.1194L10.0709 7.69029C9.68963 7.30905 9.07152 7.30905 8.69029 7.69029C8.30905 8.07152 8.30905 8.68963 8.69029 9.07086L15.1194 15.5L8.69029 21.9291C8.30905 22.3104 8.30905 22.9285 8.69029 23.3097C9.07152 23.6909 9.68963 23.6909 10.0709 23.3097L16.5 16.8806L22.9291 23.3097C23.3104 23.6909 23.9285 23.6909 24.3097 23.3097C24.6909 22.9285 24.6909 22.3104 24.3097 21.9291L17.8806 15.5Z" fill="#262626"></path> </svg> 