<?xml version="1.0" encoding="UTF-8"?> <svg xmlns="http://www.w3.org/2000/svg" width="208" height="78" viewBox="0 0 208 78" fill="none"> <path fill-rule="evenodd" clip-rule="evenodd" d="M23.4741 0.419922C22.6869 0.419922 21.7872 0.419922 20.4376 0.419922C18.4133 0.419922 16.8388 0.645579 15.2643 0.871236C13.3524 1.20972 11.7779 1.77386 10.091 2.56367C8.40403 3.35347 6.942 4.48175 5.7049 5.72287C4.35534 6.96398 3.34317 8.54358 2.44346 10.1232C1.65622 11.7028 1.0939 13.3952 0.756509 15.2005C0.531582 16.6672 0.306656 18.2468 0.306656 20.2778V21.0676C0.306656 21.406 0.306656 21.6317 0.306656 21.9702V23.7754V53.5622V54.9161C0.306656 55.706 0.306656 56.4958 0.306656 57.1727C0.306656 59.2036 0.531582 60.6704 0.756509 62.25C1.0939 64.0553 1.65622 65.7477 2.44346 67.3273C3.23071 68.9069 4.35534 70.4865 5.7049 71.7276C7.05447 72.9687 8.51649 74.097 10.091 74.8868C11.6655 75.6766 13.3524 76.2408 15.2643 76.5792C16.6139 76.8049 18.0759 76.9177 19.8753 77.0306H21.2249C21.8996 77.0306 22.9118 77.0306 24.9362 77.0306H53.6143C54.4016 77.0306 55.3013 77.0306 56.6509 77.0306C58.6752 77.0306 60.2497 76.8049 61.8242 76.5792C63.7361 76.2408 65.3105 75.6766 66.9975 74.8868C68.6844 74.097 70.1465 72.9687 71.3836 71.7276C72.7331 70.4865 73.7453 68.9069 74.645 67.3273C75.4323 65.7477 75.9946 64.0553 76.332 62.25C76.5569 60.8961 76.6694 59.4293 76.7818 57.7369V57.1727C76.7818 56.7214 76.7818 56.3829 76.7818 55.9316V52.4339V23.2113V21.6317C76.7818 21.1804 76.7818 20.7291 76.7818 20.3906C76.7818 18.3597 76.5569 16.8929 76.332 15.3133C75.9946 13.508 75.4323 11.8156 74.645 10.236C73.8578 8.65641 72.7331 7.07681 71.3836 5.83569C70.034 4.59458 68.572 3.46629 66.9975 2.67649C65.423 1.88669 63.7361 1.32255 61.8242 0.984065C60.4746 0.758408 59.0126 0.64558 57.3256 0.532751H55.8636C55.7512 0.532751 55.6387 0.532751 55.4138 0.532751L23.4741 0.419922Z" fill="white"></path> <path fill-rule="evenodd" clip-rule="evenodd" d="M104.447 10.5745C97.6997 10.5745 92.6388 14.7491 92.6388 21.8573H98.9368C98.8243 19.0366 100.624 16.2159 104.447 16.2159C107.259 16.2159 109.171 18.134 109.171 20.6162C109.171 23.0984 107.147 24.5652 103.998 26.1448C99.8365 28.1757 97.2498 29.1912 92.7513 30.658V38.8944H116.144V33.253H101.186C103.323 32.3504 105.46 31.3349 107.372 30.4323C112.432 27.9501 115.469 25.2422 115.469 20.3906C115.356 14.4106 110.97 10.5745 104.447 10.5745ZM125.591 16.6672H137.737V11.0258H119.518V38.8944H125.591V16.6672ZM147.296 11.0258H141.223V38.8944H147.296L158.655 21.0675V38.8944H164.728V11.0258H158.655L147.409 28.8527V11.0258H147.296ZM195.093 28.4014H188.795C187.895 31.4478 184.971 33.5915 181.485 33.5915C176.537 33.5915 173.275 29.304 173.275 24.9037C173.275 20.5034 176.424 16.2159 181.71 16.2159C185.196 16.2159 187.895 18.3596 188.795 21.406H195.093C194.193 15.2004 189.245 10.5745 181.485 10.5745C172.938 10.5745 167.202 16.6672 167.202 24.9037C167.202 33.253 172.938 39.2329 181.485 39.2329C189.245 39.2329 194.193 34.7198 195.093 28.4014Z" fill="#1A1A1A"></path> <path d="M101.523 54.8035V52.9983H92.413V67.666H94.4373V54.8035H101.523Z" fill="#1A1A1A"></path> <path d="M102.197 62.927H110.632C110.857 59.4293 108.833 56.7214 105.571 56.7214C102.647 56.7214 100.286 58.978 100.286 62.3629C100.286 65.6349 102.197 68.1171 105.684 68.1171C108.383 68.1171 110.07 66.5375 110.52 64.7323H108.608C108.158 65.8606 107.258 66.5375 105.684 66.5375C103.884 66.4247 102.197 65.2964 102.197 62.927ZM102.197 61.3474C102.31 59.2037 103.884 58.301 105.459 58.301C107.371 58.301 108.608 59.8806 108.608 61.3474H102.197Z" fill="#1A1A1A"></path> <path d="M122.554 62.3629C122.554 58.4139 119.855 56.7214 117.381 56.7214C114.907 56.7214 112.208 58.4139 112.208 62.3629C112.208 66.3119 114.907 68.0043 117.381 68.0043C119.855 68.0043 122.554 66.3119 122.554 62.3629ZM117.269 66.4247C115.582 66.4247 114.007 65.2964 114.007 62.3629C114.007 59.4293 115.582 58.301 117.269 58.301C118.956 58.301 120.53 59.4293 120.53 62.3629C120.53 65.1836 118.956 66.4247 117.269 66.4247Z" fill="#1A1A1A"></path> <path d="M126.715 56.8343H124.916V71.2763H126.715V66.0862C127.39 67.2145 128.515 68.0043 130.314 68.0043C132.788 68.0043 134.925 65.9734 134.925 62.3629C134.925 58.7524 132.788 56.7214 130.314 56.7214C128.627 56.7214 127.39 57.5112 126.715 58.6395V56.8343ZM129.752 66.4247C128.065 66.4247 126.603 65.1836 126.603 62.3629C126.603 59.5422 128.177 58.301 129.752 58.301C131.664 58.301 132.901 59.7678 132.901 62.3629C132.901 64.9579 131.664 66.4247 129.752 66.4247Z" fill="#1A1A1A"></path> <path d="M138.523 62.927H146.958C147.183 59.4293 145.159 56.7214 141.897 56.7214C138.973 56.7214 136.611 58.978 136.611 62.3629C136.611 65.6349 138.523 68.1171 142.01 68.1171C144.709 68.1171 146.396 66.5375 146.846 64.7323H144.934C144.484 65.8606 143.584 66.5375 142.01 66.5375C140.435 66.5375 138.523 65.2964 138.523 62.927ZM138.523 61.3474C138.636 59.2037 140.21 58.301 141.785 58.301C143.697 58.301 144.934 59.8806 144.934 61.3474H138.523Z" fill="#1A1A1A"></path> <path d="M152.357 62.9272L156.068 67.7788H158.318L153.819 62.0246L157.98 56.8345H155.844L152.357 61.3476H151.008V56.8345H149.096V67.7788H151.008V62.9272H152.357Z" fill="#1A1A1A"></path> <path d="M168.777 67.7788V56.8345H161.467L161.354 60.5578C161.129 65.071 160.23 66.1993 159.218 66.1993H158.993V67.7788H159.33C161.917 67.7788 162.816 65.5223 163.041 61.122L163.154 58.5269H166.865V67.8917H168.777V67.7788Z" fill="#1A1A1A"></path> <path d="M171.138 64.8452C171.138 66.8761 172.825 68.0044 174.849 68.0044C176.761 68.0044 177.886 67.3274 178.56 66.1991C178.56 66.8761 178.673 67.3274 178.673 67.6659H180.585C180.36 66.6504 180.247 65.4093 180.247 63.4912V61.009C180.247 57.9626 178.898 56.4958 175.861 56.4958C173.724 56.4958 171.7 57.8498 171.475 60.2192H173.387C173.499 58.8653 174.399 58.0755 175.861 58.0755C177.211 58.0755 178.335 58.7524 178.335 60.7833V61.009C174.062 61.5731 171.138 62.2501 171.138 64.8452ZM178.673 62.4758V63.1527C178.673 65.7478 176.986 66.5376 175.299 66.5376C173.949 66.5376 173.162 65.8606 173.162 64.8452C173.162 63.3784 175.299 62.8143 178.673 62.4758Z" fill="#1A1A1A"></path> <path d="M195.092 67.7788V56.8345H192.506L189.244 65.2966L185.87 56.8345H183.284V67.7788H185.083V59.091L188.57 67.7788H189.919L193.406 58.9782V67.7788H195.092Z" fill="#1A1A1A"></path> <path d="M197.455 64.8452C197.455 66.8761 199.142 68.0044 201.167 68.0044C203.078 68.0044 204.203 67.3274 204.878 66.1991C204.878 66.8761 204.99 67.3274 204.99 67.6659H206.902C206.677 66.6504 206.565 65.4093 206.565 63.4912V61.009C206.565 57.9626 205.215 56.4958 202.179 56.4958C200.042 56.4958 198.018 57.8498 197.793 60.2192H199.705C199.817 58.8653 200.717 58.0755 202.179 58.0755C203.528 58.0755 204.653 58.7524 204.653 60.7833V61.009C200.379 61.5731 197.455 62.2501 197.455 64.8452ZM204.99 62.4758V63.1527C204.99 65.7478 203.303 66.5376 201.616 66.5376C200.267 66.5376 199.48 65.8606 199.48 64.8452C199.48 63.3784 201.616 62.8143 204.99 62.4758Z" fill="#1A1A1A"></path> <mask id="mask0_959_3164" style="mask-type:alpha" maskUnits="userSpaceOnUse" x="2" y="2" width="73" height="73"> <path fill-rule="evenodd" clip-rule="evenodd" d="M20.549 2.67676H23.5855H55.6376C56.0874 2.67676 56.4248 2.67676 56.7622 2.67676C58.3367 2.67676 59.9112 2.78959 61.4857 3.12807C63.0602 3.46656 64.5222 3.91787 65.9842 4.59485C67.4462 5.27182 68.6833 6.28728 69.808 7.41556C70.9326 8.54385 71.8323 9.78496 72.6195 11.2517C73.4068 12.7185 73.8566 14.1853 74.0816 15.7649C74.419 17.3445 74.419 18.9241 74.5314 20.5037C74.5314 21.1807 74.5314 21.9705 74.5314 22.6474V23.8885V52.4342C74.5314 53.3368 74.5314 54.1266 74.5314 55.0293C74.5314 55.7062 74.5314 56.496 74.5314 57.173C74.5314 58.7526 74.419 60.3322 74.0816 61.9118C73.7442 63.4914 73.2943 64.9582 72.6195 66.4249C71.9448 67.8917 70.9326 69.1328 69.808 70.2611C68.6833 71.3894 67.3338 72.292 65.9842 73.0818C64.5222 73.7588 63.0602 74.3229 61.4857 74.5486C59.9112 74.7743 58.3367 74.8871 56.7622 74.9999H51.9263H21.5611C21.1113 74.9999 20.7739 74.9999 20.4365 74.9999C18.862 74.9999 17.2875 74.8871 15.713 74.5486C14.1385 74.2101 12.6765 73.7588 11.2145 73.0818C9.75245 72.4049 8.51535 71.3894 7.39072 70.2611C6.26608 69.1328 5.36638 67.8917 4.57913 66.4249C3.79189 64.9582 3.34203 63.4914 3.11711 61.9118C2.77972 60.3322 2.77972 58.7526 2.66725 57.173C2.66725 56.496 2.66725 55.7062 2.66725 55.0293V53.7881V25.2425C2.66725 24.3399 2.66725 23.5501 2.66725 22.6474C2.66725 21.9705 2.66725 21.1807 2.66725 20.5037C2.66725 18.9241 2.77972 17.3445 3.11711 15.7649C3.4545 14.1853 3.90435 12.7185 4.57913 11.2517C5.25391 9.78496 6.26608 8.54385 7.39072 7.41556C8.51535 6.28728 9.86491 5.38465 11.2145 4.59485C12.6765 3.91787 14.1385 3.35373 15.713 3.12807C17.4 2.90242 18.9745 2.78959 20.549 2.67676Z" fill="white"></path> </mask> <g mask="url(#mask0_959_3164)"> <path d="M74.6439 2.67676H2.66725V74.8871H74.6439V2.67676Z" fill="#19AA1E"></path> <path fill-rule="evenodd" clip-rule="evenodd" d="M2.66725 2.67676H74.6439V26.3708L2.66725 15.0879V2.67676Z" fill="#FFB919"></path> <path fill-rule="evenodd" clip-rule="evenodd" d="M2.66725 66.9892L74.6439 55.7063V74.8872H2.66725V66.9892Z" fill="#82D714"></path> <path fill-rule="evenodd" clip-rule="evenodd" d="M2.66725 13.6211L27.7466 17.5701C30.8956 15.5392 34.6069 14.5237 38.6556 14.5237C44.1663 14.5237 49.2271 16.6675 52.826 20.278C53.2758 20.7293 53.7257 21.1806 54.1755 21.7448L74.6439 24.904V27.7247L56.1999 24.7911C57.5494 27.3862 58.3367 30.3197 58.3367 33.3661C58.3367 37.2023 57.437 41.0385 55.6376 44.9875V45.1003L54.8503 46.6799H53.0509C49.3396 46.6799 46.8654 47.8082 45.2909 49.7263C44.0538 51.3059 43.2666 53.3368 43.0416 55.5933V55.7062V56.0447V56.1575V56.496C42.9292 57.5114 42.9292 58.4141 42.8167 59.091L74.6439 54.2394V57.0601L2.66725 68.343V65.5223L34.4944 60.5578V59.8808V59.6552V59.5424V59.4295C34.4944 58.6397 34.382 57.6243 34.2695 56.496V56.2703V55.819C34.0446 53.5624 33.3698 51.4187 32.0202 49.8391C30.4457 47.8082 27.9715 46.6799 24.3727 46.6799H24.2602H22.4608L21.6736 45.1003C19.8742 41.1513 18.9745 37.3151 18.9745 33.3661C18.9745 28.4016 20.9988 23.6628 24.4852 20.1652C24.5976 20.0523 24.7101 19.9395 24.8226 19.8267L2.66725 16.5546V13.6211Z" fill="white"></path> <path fill-rule="evenodd" clip-rule="evenodd" d="M38.6562 17.3445C48.6655 17.3445 55.5257 25.1297 55.5257 33.479C55.5257 36.8638 54.851 40.3615 53.0515 43.972C43.1548 43.972 40.6806 51.0802 40.2307 55.5934V55.9319C40.1182 57.5115 40.0058 58.7526 40.0058 59.768L37.3066 60.2194V60.1065C37.3066 59.0911 37.1942 57.6243 36.9693 55.819V55.7062C36.5194 51.1931 34.1577 43.972 24.1484 43.972C22.4615 40.3615 21.6742 36.8638 21.6742 33.479C21.7867 25.1297 28.647 17.3445 38.6562 17.3445Z" fill="#0073FA"></path> </g> </svg> 